<?xml version="1.0" encoding="UTF-8" standalone="no"?>
<!DOCTYPE svg PUBLIC "-//W3C//DTD SVG 1.1//EN" "http://www.w3.org/Graphics/SVG/1.1/DTD/svg11.dtd">
<svg width="100%" height="100%" viewBox="0 0 443 43" version="1.1" xmlns="http://www.w3.org/2000/svg" xmlns:xlink="http://www.w3.org/1999/xlink" xml:space="preserve" xmlns:serif="http://www.serif.com/" style="fill-rule:evenodd;clip-rule:evenodd;stroke-linejoin:round;stroke-miterlimit:2;">
    <g transform="matrix(1,0,0,1,-14.72,-17.92)">
        <path d="M51.9,44.48C49.552,51.901 42.683,57.025 34.9,57.16C25,57.16 17,48.86 17,38.67C16.89,29.412 23.815,21.452 33,20.28L33,18C22.555,19.165 14.599,28.161 14.72,38.67C14.72,50.11 23.72,59.42 34.9,59.42C42.803,59.353 49.969,54.646 53.17,47.42L61.12,47.42C58.455,52.47 53.566,55.984 47.93,56.9L49.36,58.9C56.697,57.299 62.6,51.811 64.73,44.61L51.9,44.48Z" style="fill:rgb(98,202,235);fill-rule:nonzero;"/>
    </g>
    <g transform="matrix(1,0,0,1,-14.72,-17.92)">
        <path d="M45.15,17.92C33.882,18.122 24.722,27.447 24.722,38.717C24.722,45.701 28.24,52.235 34.07,56.08L35.51,54.33C30.194,50.906 26.981,44.993 27,38.67C26.923,28.626 35.106,20.289 45.15,20.18C52.049,20.215 58.356,24.179 61.38,30.38L53.38,30.38C51.86,26.785 49.353,23.692 46.15,21.46L44.9,23.35C48.184,25.638 50.641,28.93 51.9,32.73L64.73,32.73C62.215,24.024 54.212,17.971 45.15,17.92Z" style="fill:rgb(169,207,55);fill-rule:nonzero;"/>
    </g>
    <g>
        <g transform="matrix(1,0,0,1,-14.72,-17.92)">
            <path d="M29.84,30.38C29.476,31.13 29.159,31.901 28.89,32.69L51.13,32.69C50.846,31.899 50.512,31.128 50.13,30.38L29.84,30.38Z" style="fill:white;fill-rule:nonzero;"/>
        </g>
        <g transform="matrix(1,0,0,1,-14.72,-17.92)">
            <path d="M132.58,18.49L128.85,24.62L90.71,24.62C83.1,24.62 78.81,32.74 78.81,39.3C78.81,45.86 83.22,52.81 90.71,52.81L100.48,52.81L104.21,59L90.71,59C80.5,59 72.2,49.51 72.2,39.3C72.2,29.09 80.5,18.49 90.71,18.49L132.58,18.49Z" style="fill:white;fill-rule:nonzero;"/>
        </g>
        <g transform="matrix(1,0,0,1,-14.72,-17.92)">
            <path d="M137,39.3C137,45.86 141.41,52.81 148.9,52.81L163.9,52.81L167.63,59L148.86,59C138.66,59 130.35,49.54 130.35,39.33C130.35,29.12 138.66,18.52 148.86,18.52L167.63,18.52L163.93,24.65L148.86,24.65C141.25,24.65 136.96,32.78 136.96,39.33" style="fill:white;fill-rule:nonzero;"/>
        </g>
        <g transform="matrix(1,0,0,1,-14.72,-17.92)">
            <path d="M184.15,57C183.106,58.037 181.691,58.617 180.22,58.61C180.112,58.617 180.003,58.62 179.895,58.62C177.031,58.62 174.675,56.264 174.675,53.4C174.675,53.323 174.677,53.247 174.68,53.17C174.674,53.068 174.671,52.965 174.671,52.863C174.671,49.967 177.055,47.583 179.951,47.583C180.041,47.583 180.13,47.585 180.22,47.59C181.693,47.587 183.107,48.17 184.15,49.21L183.58,49.7C182.686,48.816 181.477,48.323 180.22,48.33C180.133,48.325 180.045,48.322 179.958,48.322C177.495,48.322 175.468,50.349 175.468,52.812C175.468,52.922 175.472,53.031 175.48,53.14C175.477,53.212 175.475,53.284 175.475,53.357C175.475,55.825 177.506,57.857 179.975,57.857C180.057,57.857 180.138,57.854 180.22,57.85C181.481,57.851 182.692,57.354 183.59,56.47L184.15,57Z" style="fill:white;fill-rule:nonzero;"/>
        </g>
        <g transform="matrix(1,0,0,1,-14.72,-17.92)">
            <path d="M196.5,53.09C196.503,53.168 196.505,53.245 196.505,53.323C196.505,56.307 194.049,58.763 191.065,58.763C188.081,58.763 185.625,56.307 185.625,53.323C185.625,53.245 185.627,53.168 185.63,53.09C185.627,53.012 185.625,52.935 185.625,52.857C185.625,49.873 188.081,47.417 191.065,47.417C194.049,47.417 196.505,49.873 196.505,52.857C196.505,52.935 196.503,53.012 196.5,53.09M186.45,53.09C186.447,53.162 186.445,53.233 186.445,53.305C186.445,55.845 188.535,57.935 191.075,57.935C193.615,57.935 195.705,55.845 195.705,53.305C195.705,53.233 195.703,53.162 195.7,53.09C195.707,52.986 195.711,52.881 195.711,52.776C195.711,50.324 193.693,48.306 191.241,48.306C191.181,48.306 191.12,48.308 191.06,48.31C190.992,48.307 190.923,48.305 190.855,48.305C188.43,48.305 186.435,50.3 186.435,52.725C186.435,52.847 186.44,52.969 186.45,53.09" style="fill:white;fill-rule:nonzero;"/>
        </g>
        <path d="M184.12,29.77L191.37,38.68L191.37,29.77L192.19,29.77L192.19,40.54L191.87,40.54L184.6,31.64L184.6,40.54L183.77,40.54L183.77,29.77L184.12,29.77Z" style="fill:white;fill-rule:nonzero;"/>
        <g transform="matrix(1,0,0,1,-14.72,-17.92)">
            <path d="M216.47,49.76C215.735,48.713 214.48,48.152 213.21,48.3C211.95,48.3 209.95,48.76 209.95,50.49C209.95,51.86 211.42,52.18 213.24,52.49C215.32,52.89 217.47,53.26 217.47,55.58C217.47,57.9 215.01,58.58 213.21,58.58C211.42,58.678 209.715,57.776 208.79,56.24L209.53,55.87C210.316,57.138 211.718,57.9 213.21,57.87C214.53,57.87 216.64,57.5 216.64,55.59C216.64,53.97 214.87,53.59 213.1,53.28C211.1,52.89 209.1,52.49 209.1,50.51C209.05,48.23 211.42,47.51 213.19,47.51C214.741,47.329 216.268,48.038 217.13,49.34L216.47,49.76Z" style="fill:white;fill-rule:nonzero;"/>
        </g>
        <g transform="matrix(1,0,0,1,-14.72,-17.92)">
            <path d="M229.64,53.09C229.643,53.168 229.645,53.245 229.645,53.323C229.645,56.307 227.189,58.763 224.205,58.763C221.221,58.763 218.765,56.307 218.765,53.323C218.765,53.245 218.767,53.168 218.77,53.09C218.767,53.012 218.765,52.935 218.765,52.857C218.765,49.873 221.221,47.417 224.205,47.417C227.189,47.417 229.645,49.873 229.645,52.857C229.645,52.935 229.643,53.012 229.64,53.09M219.64,53.09C219.637,53.162 219.635,53.233 219.635,53.305C219.635,55.845 221.725,57.935 224.265,57.935C226.805,57.935 228.895,55.845 228.895,53.305C228.895,53.233 228.893,53.162 228.89,53.09C228.897,52.986 228.901,52.881 228.901,52.777C228.901,50.325 226.883,48.307 224.431,48.307C224.374,48.307 224.317,48.308 224.26,48.31C224.188,48.307 224.117,48.305 224.045,48.305C221.62,48.305 219.625,50.3 219.625,52.725C219.625,52.847 219.63,52.969 219.64,53.09" style="fill:white;fill-rule:nonzero;"/>
        </g>
        <g transform="matrix(1,0,0,1,-14.72,-17.92)">
            <path d="M240.22,58.46L239.13,58.46L235.4,54.38L232.46,54.38L232.46,58.46L231.63,58.46L231.63,47.69L236.37,47.69C236.443,47.685 236.517,47.683 236.59,47.683C238.41,47.683 239.909,49.18 239.91,51C239.912,51.045 239.913,51.09 239.913,51.135C239.913,52.88 238.477,54.315 236.733,54.315C236.628,54.315 236.524,54.31 236.42,54.3L240.22,58.46ZM232.46,53.6L236.28,53.6C236.389,53.615 236.5,53.623 236.61,53.623C237.927,53.623 239.01,52.539 239.01,51.223C239.01,51.148 239.007,51.074 239,51C239.001,50.965 239.002,50.93 239.002,50.895C239.002,49.54 237.887,48.425 236.532,48.425C236.478,48.425 236.424,48.426 236.37,48.43L232.46,48.43L232.46,53.6Z" style="fill:white;fill-rule:nonzero;"/>
        </g>
        <path d="M230.43,30.52L226.54,30.52L226.54,29.78L235.16,29.78L235.16,30.52L231.26,30.52L231.26,40.54L230.43,40.54L230.43,30.52Z" style="fill:white;fill-rule:nonzero;"/>
        <rect x="236.75" y="29.77" width="0.82" height="10.77" style="fill:white;"/>
        <g transform="matrix(1,0,0,1,-14.72,-17.92)">
            <path d="M262.91,47.69L262.91,54.38C262.91,60.02 254.66,60.03 254.66,54.38L254.66,47.69L255.47,47.69L255.47,54.38C255.47,56.196 256.964,57.69 258.78,57.69C260.596,57.69 262.09,56.196 262.09,54.38L262.09,47.69L262.91,47.69Z" style="fill:white;fill-rule:nonzero;"/>
        </g>
        <path d="M259.86,30.97L255.73,37.28L255.46,37.28L251.3,30.97L251.3,40.54L250.47,40.54L250.47,29.77L251.46,29.77L255.58,36.05L259.66,29.77L260.68,29.77L260.68,40.54L259.86,40.54L259.86,30.97Z" style="fill:white;fill-rule:nonzero;"/>
        <g transform="matrix(1,0,0,1,-14.72,-17.92)">
            <path d="M286.16,47.25C282.29,49.96 282.09,56.72 286.16,59.68L285.76,60.28C281.25,57.37 281.25,49.58 285.76,46.67L286.16,47.25Z" style="fill:white;fill-rule:nonzero;"/>
        </g>
        <g transform="matrix(1,0,0,1,-14.72,-17.92)">
            <path d="M288.77,54.74L288.77,58.46L287.94,58.46L287.94,47.69L292.66,47.69C297.34,47.69 297.34,54.74 292.66,54.74L288.77,54.74ZM288.77,48.46L288.77,54L292.66,54C296.25,54 296.25,48.48 292.66,48.48L288.77,48.46Z" style="fill:white;fill-rule:nonzero;"/>
        </g>
        <path d="M292.23,29.77L287.8,40.57L286.91,40.57L282.48,29.77L283.37,29.77L287.35,39.62L291.34,29.77L292.23,29.77Z" style="fill:white;fill-rule:nonzero;"/>
        <path d="M296.73,30.52L292.84,30.52L292.84,29.78L301.46,29.78L301.46,30.52L297.56,30.52L297.56,40.54L296.73,40.54L296.73,30.52Z" style="fill:white;fill-rule:nonzero;"/>
        <g transform="matrix(1,0,0,1,-14.72,-17.92)">
            <path d="M317.45,46.67C321.96,49.58 321.96,57.37 317.45,60.28L317.05,59.68C321.13,56.68 320.92,49.96 317.05,47.25L317.45,46.67Z" style="fill:white;fill-rule:nonzero;"/>
        </g>
        <path d="M313.48,29.77L313.48,39.76L319.54,39.76L319.54,40.54L312.64,40.54L312.64,29.77L313.48,29.77Z" style="fill:white;fill-rule:nonzero;"/>
        <path d="M322.57,30.52L318.68,30.52L318.68,29.78L327.3,29.78L327.3,30.52L323.41,30.52L323.41,40.54L322.57,40.54L322.57,30.52Z" style="fill:white;fill-rule:nonzero;"/>
        <g transform="matrix(1,0,0,1,-14.72,-17.92)">
            <path d="M352.64,53C352.647,53.113 352.651,53.226 352.651,53.339C352.651,56.18 350.313,58.519 347.471,58.519C347.371,58.519 347.27,58.516 347.17,58.51L343.52,58.51L343.52,47.69L347.17,47.69C347.267,47.685 347.365,47.682 347.462,47.682C350.304,47.682 352.642,50.02 352.642,52.862C352.642,52.908 352.641,52.954 352.64,53M344.35,48.52L344.35,57.71L347.17,57.71C347.241,57.713 347.313,57.715 347.384,57.715C349.908,57.715 351.984,55.638 351.984,53.115C351.984,50.592 349.908,48.515 347.384,48.515C347.313,48.515 347.241,48.517 347.17,48.52L344.35,48.52Z" style="fill:white;fill-rule:nonzero;"/>
        </g>
        <g transform="matrix(1,0,0,1,-14.72,-17.92)">
            <path d="M190.16,35C188.428,36.671 186.096,37.579 183.69,37.52C177.38,37.52 174.69,33.18 174.69,28.75C174.69,24.32 177.56,19.75 183.69,19.75C186.036,19.745 188.289,20.682 189.94,22.35L187.8,24.41C186.69,23.363 185.215,22.789 183.69,22.81C183.593,22.805 183.497,22.802 183.4,22.802C180.344,22.802 177.83,25.317 177.83,28.372C177.83,28.485 177.833,28.598 177.84,28.71C177.84,31.53 179.49,34.47 183.69,34.47C185.286,34.479 186.827,33.881 188,32.8L190.16,35Z" style="fill:white;fill-rule:nonzero;"/>
        </g>
        <g transform="matrix(1,0,0,1,-14.72,-17.92)">
            <path d="M204.53,33.94L195.64,33.94L194.19,37.14L190.71,37.14L198.34,20.14L201.84,20.14L209.47,37.14L206,37.14L204.53,33.94ZM200.09,23.71L196.93,31L203.25,31L200.09,23.71Z" style="fill:white;fill-rule:nonzero;"/>
        </g>
        <g transform="matrix(1,0,0,1,-14.72,-17.92)">
            <path d="M214.76,32.14L214.76,37.14L211.55,37.14L211.55,20.14L219.55,20.14C227.91,20.14 227.93,32.14 219.55,32.14L214.76,32.14ZM214.76,29.2L219.57,29.2C221.216,29.2 222.57,27.846 222.57,26.2C222.57,24.554 221.216,23.2 219.57,23.2L214.76,23.2L214.76,29.2Z" style="fill:white;fill-rule:nonzero;"/>
        </g>
        <rect x="213.74" y="2.22" width="3.18" height="17.01" style="fill:white;"/>
        <path d="M224.74,5.13L219.35,5.13L219.35,2.22L233.34,2.22L233.34,5.13L227.95,5.13L227.95,19.22L224.74,19.22L224.74,5.13Z" style="fill:white;fill-rule:nonzero;"/>
        <g transform="matrix(1,0,0,1,-14.72,-17.92)">
            <path d="M260.86,33.94L252,33.94L250.55,37.14L247,37.14L254.63,20.14L258.13,20.14L265.76,37.14L262.26,37.14L260.86,33.94ZM256.42,23.71L253.26,31L259.58,31L256.42,23.71Z" style="fill:white;fill-rule:nonzero;"/>
        </g>
        <path d="M256.37,2.22L256.37,16.26L265.12,16.26L265.12,19.23L253.16,19.23L253.16,2.22L256.37,2.22Z" style="fill:white;fill-rule:nonzero;"/>
        <path d="M285.5,19.22L272.77,19.22L272.77,2.22L285.5,2.22L285.5,5.33L275.95,5.33L275.95,9.24L285.16,9.24L285.16,12.23L275.95,12.23L275.95,16.07L285.5,16.07L285.5,19.22Z" style="fill:white;fill-rule:nonzero;"/>
        <path d="M300.56,13.66L300.56,2.22L303.76,2.22L303.76,19.22L301.16,19.22L292.13,7.9L292.13,19.22L288.92,19.22L288.92,2.22L291.52,2.22L300.56,13.66Z" style="fill:white;fill-rule:nonzero;"/>
        <g transform="matrix(1,0,0,1,-14.72,-17.92)">
            <path d="M334.83,24.29C333.648,23.213 332.109,22.607 330.51,22.59C326.86,22.59 324.65,25.36 324.65,28.86C324.65,31.66 326.28,34.55 330.51,34.55C331.913,34.583 333.281,34.099 334.35,33.19L334.35,30.19L330,30.19L330,27.31L337.28,27.31L337.28,34.47C335.618,36.479 333.116,37.61 330.51,37.53C324.12,37.53 321.51,33.33 321.51,28.86C321.51,24.07 324.51,19.65 330.51,19.65C332.872,19.655 335.14,20.589 336.82,22.25L334.83,24.29Z" style="fill:white;fill-rule:nonzero;"/>
        </g>
        <rect x="325.84" y="2.22" width="3.18" height="17.01" style="fill:white;"/>
        <path d="M344.69,13.66L344.69,2.22L347.9,2.22L347.9,19.22L345.3,19.22L336.26,7.9L336.26,19.22L333.06,19.22L333.06,2.22L335.65,2.22L344.69,13.66Z" style="fill:white;fill-rule:nonzero;"/>
        <path d="M364.66,19.22L351.93,19.22L351.93,2.22L364.66,2.22L364.66,5.33L355.11,5.33L355.11,9.24L364.32,9.24L364.32,12.23L355.11,12.23L355.11,16.07L364.66,16.07L364.66,19.22Z" style="fill:white;fill-rule:nonzero;"/>
        <path d="M380.81,19.22L368.08,19.22L368.08,2.22L380.81,2.22L380.81,5.33L371.26,5.33L371.26,9.24L380.47,9.24L380.47,12.23L371.26,12.23L371.26,16.07L380.81,16.07L380.81,19.22Z" style="fill:white;fill-rule:nonzero;"/>
        <g transform="matrix(1,0,0,1,-14.72,-17.92)">
            <path d="M414,37.15L410.33,37.15L405.4,31.46L402.14,31.46L402.14,37.15L399,37.15L399,20.15L407.08,20.15C411.08,20.15 413.21,22.85 413.21,25.79C413.414,28.412 411.515,30.77 408.91,31.13L414,36.93L414,37.15ZM402.14,23.15L402.14,28.59L407,28.59C407.078,28.597 407.156,28.6 407.233,28.6C408.731,28.6 409.963,27.368 409.963,25.87C409.963,24.372 408.731,23.14 407.233,23.14C407.156,23.14 407.078,23.143 407,23.15L402.14,23.15Z" style="fill:white;fill-rule:nonzero;"/>
        </g>
        <rect x="401.92" y="2.22" width="3.18" height="17.01" style="fill:white;"/>
        <path d="M420.77,13.66L420.77,2.22L423.97,2.22L423.97,19.22L421.38,19.22L412.34,7.9L412.34,19.22L409.13,19.22L409.13,2.22L411.73,2.22L420.77,13.66Z" style="fill:white;fill-rule:nonzero;"/>
        <g transform="matrix(1,0,0,1,-14.72,-17.92)">
            <path d="M455,24.29C453.818,23.213 452.279,22.607 450.68,22.59C447.03,22.59 444.83,25.36 444.83,28.86C444.83,31.66 446.45,34.55 450.68,34.55C452.083,34.585 453.452,34.101 454.52,33.19L454.52,30.19L450.17,30.19L450.17,27.31L457.46,27.31L457.46,34.47C455.793,36.478 453.289,37.608 450.68,37.53C444.29,37.53 441.68,33.33 441.68,28.86C441.68,24.07 444.68,19.65 450.68,19.65C453.046,19.652 455.318,20.587 457,22.25L455,24.29Z" style="fill:white;fill-rule:nonzero;"/>
        </g>
    </g>
    <path d="M93.95,17.83L112.14,17.83L112.14,23.87L97.66,23.87L93.95,17.83Z" style="fill:rgb(98,202,235);fill-rule:nonzero;"/>
    <path d="M114.77,34.89L118.48,41.05L93.95,41.05L90.21,34.89L100.08,34.89L100.08,34.91L114.77,34.89Z" style="fill:rgb(98,202,235);fill-rule:nonzero;"/>
</svg>
