<?xml version="1.0" encoding="UTF-8" standalone="no"?>
<!DOCTYPE svg PUBLIC "-//W3C//DTD SVG 1.1//EN" "http://www.w3.org/Graphics/SVG/1.1/DTD/svg11.dtd">
<svg width="100%" height="100%" viewBox="0 0 84 25" version="1.1" xmlns="http://www.w3.org/2000/svg" xmlns:xlink="http://www.w3.org/1999/xlink" xml:space="preserve" xmlns:serif="http://www.serif.com/" style="fill-rule:evenodd;clip-rule:evenodd;stroke-linejoin:round;stroke-miterlimit:2;">
    <g transform="matrix(3.33785,0,0,3.33785,-912.99,-1374.15)">
        <g id="Layer-1" serif:id="Layer 1">
            <g>
                <g transform="matrix(0.106205,0,0,0.106205,279.824,414.533)">
                    <path d="M0,16.624C-3.468,27.135 -13.17,34.908 -24.517,34.908C-38.769,34.908 -50.364,22.946 -50.364,8.243C-50.364,-5.5 -40.232,-16.846 -27.27,-18.268L-27.27,-21.538C-42.029,-20.106 -53.618,-7.299 -53.618,8.243C-53.618,24.74 -40.563,38.162 -24.517,38.162C-12.878,38.162 -2.822,31.096 1.828,20.922L13.295,20.922C9.463,28.096 2.502,33.296 -5.723,34.588C-4.982,35.642 -4.282,36.642 -3.668,37.524C6.916,35.266 15.425,27.219 18.495,16.811L0,16.624Z" style="fill:rgb(99,203,236);fill-rule:nonzero;"/>
                </g>
                <g>
                    <g transform="matrix(0.106205,0,0,0.106205,278.79,418.076)">
                        <path d="M0,-55.033C-16.247,-55.033 -29.465,-41.611 -29.465,-25.115C-29.465,-14.597 -24.088,-5.337 -15.984,0L-13.908,-2.529C-21.291,-7.251 -26.211,-15.607 -26.211,-25.115C-26.211,-39.818 -14.453,-51.779 0,-51.779C10.228,-51.779 19.088,-45.78 23.404,-37.068L11.882,-37.068C9.652,-42.305 6.009,-46.767 1.446,-49.932L-0.346,-47.198C4.282,-43.966 7.854,-39.239 9.688,-33.681L28.229,-33.681C24.591,-46.015 13.316,-55.033 0,-55.033" style="fill:rgb(168,207,57);fill-rule:nonzero;"/>
                    </g>
                    <g transform="matrix(-0.011481,0.105582,0.105582,0.011481,278.346,412.788)">
                        <path d="M14.579,-16.417C15.704,-16.83 16.862,-17.168 18.046,-17.428L14.579,14.452C13.475,13.947 12.424,13.357 11.411,12.718L14.579,-16.417Z" style="fill:white;fill-rule:nonzero;"/>
                    </g>
                    <g transform="matrix(0.106205,0,0,0.106205,292.179,418.518)">
                        <path d="M0,-58.376L-5.376,-49.532L-60.377,-49.529C-71.355,-49.529 -77.535,-37.815 -77.535,-28.357C-77.535,-18.899 -71.183,-8.876 -60.377,-8.876L-46.289,-8.876L-40.909,0L-60.375,0C-75.096,0 -87.068,-13.639 -87.068,-28.357C-87.068,-43.078 -75.096,-58.376 -60.375,-58.376L0,-58.376Z" style="fill:rgb(28,42,87);fill-rule:nonzero;"/>
                    </g>
                    <g transform="matrix(0.106205,0,0,0.106205,288.517,415.888)">
                        <path d="M0,-8.72L26.232,-8.72L26.232,0L5.354,0L0,-8.72Z" style="fill:rgb(99,203,236);fill-rule:nonzero;"/>
                    </g>
                    <g transform="matrix(0.106205,0,0,0.106205,291.706,418.517)">
                        <path d="M0,-8.875L5.36,0L-30.019,0L-35.413,-8.875L-21.175,-8.875L-21.175,-8.843L0,-8.875Z" style="fill:rgb(99,203,236);fill-rule:nonzero;"/>
                    </g>
                    <g transform="matrix(0.106205,0,0,0.106205,292.851,415.33)">
                        <path d="M0,1.661C0,11.12 6.352,21.142 17.159,21.142L38.794,21.142L44.228,30.018L17.159,30.018C2.441,30.018 -9.534,16.381 -9.534,1.661C-9.534,-13.059 2.441,-28.357 17.159,-28.357L44.228,-28.357L38.883,-19.512L17.159,-19.511C6.179,-19.511 0,-7.796 0,1.661" style="fill:rgb(28,42,87);fill-rule:nonzero;"/>
                    </g>
                </g>
            </g>
        </g>
    </g>
</svg>
